<svg xmlns="http://www.w3.org/2000/svg" xmlns:xlink="http://www.w3.org/1999/xlink" aria-hidden="true" role="img" class="iconify iconify--material-symbols" width="32" height="32" preserveAspectRatio="xMidYMid meet" viewBox="0 0 24 24"><path fill="currentColor" d="M4 5q-.425 0-.712-.288Q3 4.425 3 4t.288-.713Q3.575 3 4 3h16q.425 0 .712.287Q21 3.575 21 4t-.288.712Q20.425 5 20 5Zm0 16q-.425 0-.712-.288Q3 20.425 3 20t.288-.712Q3.575 19 4 19h16q.425 0 .712.288q.288.287.288.712t-.288.712Q20.425 21 20 21Zm0-8q-.425 0-.712-.288Q3 12.425 3 12t.288-.713Q3.575 11 4 11h16q.425 0 .712.287q.288.288.288.713t-.288.712Q20.425 13 20 13Z"></path></svg>